<?xml version="1.0" encoding="UTF-8" standalone="yes"?>
<svg fill="none" stroke-linecap="square" stroke-miterlimit="10" version="1.1" viewBox="0.0 0.0 598.2047244094488 557.0656167979002" xmlns="http://www.w3.org/2000/svg">
 <clipPath id="a">
  <path d="m0 0h598.2v557.07h-598.2v-557.07z"/>
 </clipPath>
 <g clip-path="url(#a)">
  <path d="m0 0h598.2v557.07h-598.2z" fill="#000" fill-opacity="0"/>
  <path d="m14.57 101.39c0-48.819 39.576-88.395 88.395-88.395h391.02c23.444 0 45.928 9.3131 62.505 25.89 16.577 16.577 25.89 39.061 25.89 62.505v353.57c0 48.819-39.576 88.395-88.395 88.395h-391.02c-48.819 0-88.395-39.576-88.395-88.395z" fill="#000" fill-opacity="0"/>
  <path d="m14.57 101.39c0-48.819 39.576-88.395 88.395-88.395h391.02c23.444 0 45.928 9.3131 62.505 25.89 16.577 16.577 25.89 39.061 25.89 62.505v353.57c0 48.819-39.576 88.395-88.395 88.395h-391.02c-48.819 0-88.395-39.576-88.395-88.395z" stroke="#000" stroke-linecap="butt" stroke-linejoin="round" stroke-width="24"/>
  <path d="m175.85 327.57c0-62.56 52.365-113.28 116.96-113.28 31.02 0 60.769 11.934 82.704 33.178 21.934 21.243 34.257 50.055 34.257 80.098 0 62.56-52.365 113.28-116.96 113.28-64.596 0-116.96-50.715-116.96-113.28z" fill="#000" fill-opacity="0"/>
  <path d="m175.85 327.57c0-62.56 52.365-113.28 116.96-113.28 31.02 0 60.769 11.934 82.704 33.178 21.934 21.243 34.257 50.055 34.257 80.098 0 62.56-52.365 113.28-116.96 113.28-64.596 0-116.96-50.715-116.96-113.28z" stroke="#000" stroke-linecap="butt" stroke-linejoin="round" stroke-width="24"/>
  <path d="m464.29 97.16c0-15.125 12.205-27.386 27.26-27.386 7.2298 0 14.163 2.8853 19.276 8.0211 5.1122 5.1358 7.9842 12.102 7.9842 19.365 0 15.125-12.205 27.386-27.26 27.386s-27.26-12.261-27.26-27.386z" fill="#000"/>
  <path d="m464.29 97.16c0-15.125 12.205-27.386 27.26-27.386 7.2298 0 14.163 2.8853 19.276 8.0211 5.1122 5.1358 7.9842 12.102 7.9842 19.365 0 15.125-12.205 27.386-27.26 27.386s-27.26-12.261-27.26-27.386z" stroke="#000" stroke-linecap="butt" stroke-linejoin="round" stroke-width="24"/>
 </g>
</svg>
